<svg xmlns="http://www.w3.org/2000/svg" viewBox="0 0 64 64" aria-hidden="true">
  <!-- Original radial starburst: twelve tapered rays of uneven length around a small core. -->
  <g fill="#ff7a59" stroke="#c94a2c" stroke-width="1.2" stroke-linejoin="round">
    <path d="M32 4 L35 26 L32 30 L29 26 Z"/>
    <path d="M32 60 L29 38 L32 34 L35 38 Z"/>
    <path d="M4 32 L26 29 L30 32 L26 35 Z"/>
    <path d="M60 32 L38 35 L34 32 L38 29 Z"/>
    <path d="M12.2 12.2 L28 27 L29 31 L25 29 Z"/>
    <path d="M51.8 51.8 L36 37 L35 33 L39 35 Z"/>
    <path d="M51.8 12.2 L37 28 L33 29 L35 25 Z"/>
    <path d="M12.2 51.8 L27 36 L31 35 L29 39 Z"/>
    <path d="M21 7.5 L31 27 L28.5 29 Z"/>
    <path d="M43 56.5 L33 37 L35.5 35 Z"/>
    <path d="M56.5 21 L37 31 L35 28.5 Z"/>
    <path d="M7.5 43 L27 33 L29 35.5 Z"/>
  </g>
  <circle cx="32" cy="32" r="5" fill="#ffd2c2"/>
</svg>
